<?xml version="1.0" encoding="utf-8"?>
<svg viewBox="46.107 1.862 20 20" width="8px" height="8px" xmlns="http://www.w3.org/2000/svg">
    <path style=" stroke:none;fill-rule:nonzero;fill:rgb(99.607843%,43.137255%,0.392157%);fill-opacity:1;" d="M 1.289062 1.335938 C 2.382812 1.320312 3.484375 1.324219 4.578125 1.316406 C 4.71875 1.316406 4.785156 1.367188 4.84375 1.492188 C 5.085938 2.027344 5.335938 2.554688 5.585938 3.113281 C 5.546875 3.214844 5.515625 3.292969 5.480469 3.371094 C 5.09375 4.195312 4.710938 5.015625 4.308594 5.839844 C 4.273438 5.898438 4.246094 5.957031 4.21875 6.023438 C 4.203125 6.066406 4.191406 6.09375 4.171875 6.128906 C 4.15625 6.160156 4.148438 6.179688 4.140625 6.210938 C 4.136719 6.222656 4.132812 6.238281 4.117188 6.242188 C 4.082031 6.300781 4.058594 6.355469 4.03125 6.425781 C 4.007812 6.480469 3.984375 6.523438 3.945312 6.5625 C 3.859375 6.535156 3.789062 6.507812 3.71875 6.480469 C 3.3125 5.613281 2.898438 4.742188 2.488281 3.871094 C 2.125 3.109375 1.765625 2.339844 1.40625 1.578125 C 1.378906 1.519531 1.339844 1.46875 1.296875 1.425781 C 1.289062 1.410156 1.289062 1.378906 1.289062 1.335938 Z M 1.289062 1.335938 " transform="matrix(1.3507909774780271, 0, 0, 1.3507909774780273, 49.04225852538303, 4.803859166177649)"/>
    <path style=" stroke:none;fill-rule:nonzero;fill:rgb(98.823529%,80.392157%,67.058824%);fill-opacity:1;" d="M 5.632812 3.125 C 6.671875 3.121094 7.710938 3.121094 8.769531 3.121094 C 8.789062 3.320312 8.789062 3.519531 8.789062 3.742188 C 8.753906 3.789062 8.710938 3.808594 8.691406 3.847656 C 8.230469 4.828125 7.773438 5.808594 7.296875 6.777344 C 6.972656 6.109375 6.664062 5.453125 6.351562 4.785156 C 6.226562 4.511719 6.101562 4.253906 5.972656 3.984375 C 5.945312 3.925781 5.925781 3.882812 5.902344 3.828125 C 5.890625 3.796875 5.875 3.777344 5.863281 3.742188 C 5.785156 3.527344 5.710938 3.328125 5.632812 3.125 Z M 5.632812 3.125 " transform="matrix(1.3507909774780271, 0, 0, 1.3507909774780273, 49.04225852538303, 4.803859166177649)"/>
    <path style=" stroke:none;fill-rule:nonzero;fill:rgb(99.607843%,64.313725%,38.039216%);fill-opacity:1;" d="M 5.625 3.121094 C 5.710938 3.328125 5.785156 3.527344 5.855469 3.753906 C 5.867188 3.796875 5.882812 3.816406 5.90625 3.835938 C 5.925781 3.882812 5.945312 3.925781 5.972656 4 C 5.953125 4.105469 5.914062 4.183594 5.90625 4.265625 C 5.898438 4.3125 5.925781 4.414062 5.941406 4.414062 C 6.128906 4.417969 6.1875 4.554688 6.242188 4.710938 C 6.25 4.75 6.3125 4.769531 6.351562 4.796875 C 6.664062 5.453125 6.972656 6.109375 7.285156 6.777344 C 6.152344 6.792969 5.019531 6.792969 3.882812 6.78125 C 3.90625 6.699219 3.929688 6.632812 3.960938 6.566406 C 3.984375 6.523438 4.007812 6.480469 4.042969 6.417969 C 4.078125 6.34375 4.105469 6.292969 4.132812 6.238281 C 4.132812 6.238281 4.136719 6.222656 4.148438 6.203125 C 4.164062 6.167969 4.171875 6.144531 4.179688 6.121094 C 4.191406 6.09375 4.203125 6.066406 4.230469 6.019531 C 4.269531 5.945312 4.296875 5.894531 4.320312 5.839844 C 4.710938 5.015625 5.09375 4.195312 5.480469 3.371094 C 5.515625 3.292969 5.546875 3.214844 5.59375 3.125 C 5.605469 3.113281 5.609375 3.117188 5.625 3.121094 Z M 5.625 3.121094 " transform="matrix(1.3507909774780271, 0, 0, 1.3507909774780273, 49.04225852538303, 4.803859166177649)"/>
    <path style=" stroke:none;fill-rule:nonzero;fill:rgb(95.686275%,44.705882%,7.45098%);fill-opacity:1;" d="M 3.945312 6.5625 C 3.929688 6.632812 3.90625 6.699219 3.863281 6.773438 C 3.808594 6.691406 3.765625 6.601562 3.722656 6.496094 C 3.789062 6.507812 3.859375 6.535156 3.945312 6.5625 Z M 3.945312 6.5625 " transform="matrix(1.3507909774780271, 0, 0, 1.3507909774780273, 49.04225852538303, 4.803859166177649)"/>
    <path style=" stroke:none;fill-rule:nonzero;fill:rgb(97.647059%,46.666667%,8.235294%);fill-opacity:1;" d="M 4.308594 5.839844 C 4.296875 5.894531 4.269531 5.945312 4.230469 6.007812 C 4.246094 5.957031 4.273438 5.898438 4.308594 5.839844 Z M 4.308594 5.839844 " transform="matrix(1.3507909774780271, 0, 0, 1.3507909774780273, 49.04225852538303, 4.803859166177649)"/>
    <path style=" stroke:none;fill-rule:nonzero;fill:rgb(97.647059%,46.666667%,8.235294%);fill-opacity:1;" d="M 4.117188 6.242188 C 4.105469 6.292969 4.078125 6.34375 4.042969 6.402344 C 4.058594 6.355469 4.082031 6.300781 4.117188 6.242188 Z M 4.117188 6.242188 " transform="matrix(1.3507909774780271, 0, 0, 1.3507909774780273, 49.04225852538303, 4.803859166177649)"/>
    <path style=" stroke:none;fill-rule:nonzero;fill:rgb(97.647059%,46.666667%,8.235294%);fill-opacity:1;" d="M 4.171875 6.128906 C 4.171875 6.144531 4.164062 6.167969 4.148438 6.195312 C 4.148438 6.179688 4.15625 6.160156 4.171875 6.128906 Z M 4.171875 6.128906 " transform="matrix(1.3507909774780271, 0, 0, 1.3507909774780273, 49.04225852538303, 4.803859166177649)"/>
    <path style=" stroke:none;fill-rule:nonzero;fill:rgb(97.647059%,65.882353%,41.960784%);fill-opacity:1;" d="M 6.351562 4.785156 C 6.3125 4.769531 6.25 4.75 6.242188 4.710938 C 6.1875 4.554688 6.128906 4.417969 5.941406 4.414062 C 5.925781 4.414062 5.898438 4.3125 5.90625 4.265625 C 5.914062 4.183594 5.953125 4.105469 5.976562 4.011719 C 6.101562 4.253906 6.226562 4.511719 6.351562 4.785156 Z M 6.351562 4.785156 " transform="matrix(1.3507909774780271, 0, 0, 1.3507909774780273, 49.04225852538303, 4.803859166177649)"/>
    <path style=" stroke:none;fill-rule:nonzero;fill:rgb(97.647059%,65.882353%,41.960784%);fill-opacity:1;" d="M 5.902344 3.828125 C 5.882812 3.816406 5.867188 3.796875 5.859375 3.765625 C 5.875 3.777344 5.890625 3.796875 5.902344 3.828125 Z M 5.902344 3.828125 " transform="matrix(1.3507909774780271, 0, 0, 1.3507909774780273, 49.04225852538303, 4.803859166177649)"/>
    <rect x="46.107" y="1.862" width="20" height="20" style="stroke: rgb(0, 0, 0); fill: none; vector-effect: non-scaling-stroke;" transform="matrix(1, 0, 0, 1, 0, 2.220446049250313e-16)"/>
</svg>
