<svg version="1.1" id="Layer_1" xmlns="http://www.w3.org/2000/svg" xmlns:xlink="http://www.w3.org/1999/xlink" x="0px" y="0px"
	 width="100%" viewBox="0 0 200 200" enable-background="new 0 0 200 200" xml:space="preserve">
<path fill="#000000" opacity="1.000000" stroke="none" 
	d="
M201.000000,94.000000 
	C201.000000,129.633591 201.000000,165.267166 201.000000,200.950378 
	C134.428284,200.950378 67.856514,200.950378 1.000000,200.950378 
	C1.000000,146.312775 1.000000,91.625046 1.274952,36.146629 
	C2.416108,36.703381 3.411539,37.985645 4.128993,39.408112 
	C13.779764,58.542328 23.378454,77.702797 33.016972,96.843208 
	C43.961029,118.576202 54.932133,140.295578 65.941849,162.380310 
	C67.115349,165.000626 68.238464,167.261505 69.841324,169.704041 
	C100.536339,169.858826 130.751617,169.831970 161.326141,169.777618 
	C173.916977,145.221985 186.135071,120.687096 198.432068,96.191811 
	C198.897308,95.265060 200.126694,94.721901 201.000000,94.000000 
z"/>
<path fill="#000000" opacity="1.000000" stroke="none" 
	d="
M1.000000,33.000000 
	C1.000000,22.348454 1.000000,11.696908 1.000000,1.022681 
	C67.557037,1.022681 134.114075,1.022681 201.000000,1.022681 
	C201.000000,26.353279 201.000000,51.707981 200.531342,77.532196 
	C172.358307,78.049576 144.653915,78.097435 116.709503,78.053162 
	C116.303802,77.917076 116.138138,77.873116 115.828407,77.514404 
	C109.035088,63.907532 102.302658,50.655895 95.797890,37.293438 
	C94.264603,34.143673 92.569092,32.855301 88.803940,32.882553 
	C59.537212,33.094395 30.268263,32.999821 1.000000,33.000000 
z"/>
<path fill="#FE6E01" opacity="1.000000" stroke="none" 
	d="
M1.000000,33.375000 
	C30.268263,32.999821 59.537212,33.094395 88.803940,32.882553 
	C92.569092,32.855301 94.264603,34.143673 95.797890,37.293438 
	C102.302658,50.655895 109.035088,63.907532 115.615631,77.799774 
	C114.644585,80.350349 113.792870,82.326103 112.832153,84.247345 
	C102.539169,104.831322 92.228958,125.406685 81.572281,146.053085 
	C80.547943,147.520782 79.874794,148.919800 79.174606,150.620117 
	C78.803207,151.625595 78.458839,152.329742 77.864212,153.214386 
	C77.431419,153.967758 77.248871,154.540649 77.034027,155.331573 
	C77.001732,155.549606 76.869385,155.970093 76.524170,156.045181 
	C75.527260,157.517883 74.875557,158.915482 74.203278,160.633362 
	C73.552528,162.022293 72.922340,163.090942 71.913467,164.072601 
	C69.653687,163.330704 67.772583,162.675797 65.891479,162.020874 
	C54.932133,140.295578 43.961029,118.576202 33.016972,96.843208 
	C23.378454,77.702797 13.779764,58.542328 4.128993,39.408112 
	C3.411539,37.985645 2.416108,36.703381 1.274952,35.677971 
	C1.000000,35.250000 1.000000,34.500000 1.000000,33.375000 
z"/>
<path fill="#FCCDAB" opacity="1.000000" stroke="none" 
	d="
M116.949539,78.145294 
	C144.653915,78.097435 172.358307,78.049576 200.531342,78.000854 
	C201.000000,83.022095 201.000000,88.044182 201.000000,93.533134 
	C200.126694,94.721901 198.897308,95.265060 198.432068,96.191811 
	C186.135071,120.687096 173.916977,145.221985 161.292801,169.430115 
	C152.621658,152.730667 144.343124,136.351227 136.000763,119.616669 
	C132.648987,112.798141 129.361038,106.334740 125.951935,99.576645 
	C125.254669,98.172653 124.678589,97.063347 124.050995,95.668518 
	C123.684219,94.913879 123.368973,94.444778 122.999405,93.618179 
	C120.946571,88.222221 118.948059,83.183754 116.949539,78.145294 
z"/>
<path fill="#FEA461" opacity="1.000000" stroke="none" 
	d="
M116.709503,78.053162 
	C118.948059,83.183754 120.946571,88.222221 122.798904,93.807175 
	C123.135986,94.887123 123.619247,95.420586 124.102509,95.954041 
	C124.678589,97.063347 125.254669,98.172653 125.928665,99.991264 
	C125.354301,102.659996 124.410851,104.579063 124.110977,106.593918 
	C123.929756,107.811615 124.710251,110.294044 125.121437,110.307632 
	C130.128571,110.473083 131.646713,113.908920 133.063004,117.814415 
	C133.409760,118.770622 135.029907,119.265053 136.064590,119.971786 
	C144.343124,136.351227 152.621658,152.730667 160.933533,169.457611 
	C130.751617,169.831970 100.536339,169.858826 70.165405,169.534637 
	C70.770538,167.508942 71.531342,165.834259 72.292145,164.159576 
	C72.922340,163.090942 73.552528,162.022293 74.458084,160.420547 
	C75.445442,158.581650 76.157410,157.275864 76.869385,155.970093 
	C76.869385,155.970093 77.001732,155.549606 77.257904,155.129257 
	C77.714203,154.150574 77.914337,153.592239 78.114471,153.033905 
	C78.458839,152.329742 78.803207,151.625595 79.469849,150.465363 
	C80.502579,148.667679 81.213020,147.326035 81.923462,145.984406 
	C92.228958,125.406685 102.539169,104.831322 112.832153,84.247345 
	C113.792870,82.326103 114.644585,80.350349 115.759689,78.114532 
	C116.138138,77.873116 116.303802,77.917076 116.709503,78.053162 
z"/>
<path fill="#F47213" opacity="1.000000" stroke="none" 
	d="
M71.913467,164.072601 
	C71.531342,165.834259 70.770538,167.508942 69.685654,169.353012 
	C68.238464,167.261505 67.115349,165.000626 65.941849,162.380310 
	C67.772583,162.675797 69.653687,163.330704 71.913467,164.072601 
z"/>
<path fill="#F97715" opacity="1.000000" stroke="none" 
	d="
M81.572281,146.053085 
	C81.213020,147.326035 80.502579,148.667679 79.496887,150.164062 
	C79.874794,148.919800 80.547943,147.520782 81.572281,146.053085 
z"/>
<path fill="#F97715" opacity="1.000000" stroke="none" 
	d="
M76.524170,156.045181 
	C76.157410,157.275864 75.445442,158.581650 74.478661,160.100250 
	C74.875557,158.915482 75.527260,157.517883 76.524170,156.045181 
z"/>
<path fill="#F97715" opacity="1.000000" stroke="none" 
	d="
M77.864220,153.214386 
	C77.914337,153.592239 77.714203,154.150574 77.290199,154.911224 
	C77.248871,154.540649 77.431419,153.967758 77.864220,153.214386 
z"/>
<path fill="#F9A86B" opacity="1.000000" stroke="none" 
	d="
M136.000763,119.616669 
	C135.029907,119.265053 133.409760,118.770622 133.063004,117.814415 
	C131.646713,113.908920 130.128571,110.473083 125.121437,110.307632 
	C124.710251,110.294044 123.929756,107.811615 124.110977,106.593918 
	C124.410851,104.579063 125.354301,102.659996 126.049843,100.285950 
	C129.361038,106.334740 132.648987,112.798141 136.000763,119.616669 
z"/>
<path fill="#F9A86B" opacity="1.000000" stroke="none" 
	d="
M124.050987,95.668518 
	C123.619247,95.420586 123.135986,94.887123 122.853226,94.164673 
	C123.368973,94.444778 123.684219,94.913879 124.050987,95.668518 
z"/>
</svg>