<?xml version="1.0" standalone="no"?>
<!DOCTYPE svg PUBLIC "-//W3C//DTD SVG 1.0//EN" "http://www.w3.org/TR/2001/REC-SVG-20010904/DTD/svg10.dtd">
<svg xmlns="http://www.w3.org/2000/svg" xmlns:xlink="http://www.w3.org/1999/xlink" id="body_1" width="1024" height="768">

<g transform="matrix(3.84 0 0 3.84 127.999985 -0)">
    <path d="M201 94C 201 129.63359 201 165.26717 201 200.95038C 134.42828 200.95038 67.856514 200.95038 1 200.95038C 1 146.31277 1 91.625046 1.274952 36.14663C 2.416108 36.70338 3.411539 37.985645 4.128993 39.40811C 13.779764 58.542328 23.378454 77.7028 33.01697 96.84321C 43.96103 118.5762 54.932133 140.29558 65.94185 162.38031C 67.11535 165.00063 68.238464 167.2615 69.841324 169.70404C 100.53634 169.85883 130.75162 169.83197 161.32614 169.77762C 173.91698 145.22198 186.13507 120.687096 198.43207 96.19181C 198.89731 95.26506 200.1267 94.7219 201 94z" stroke="none" fill="#000000" fill-rule="nonzero" />
    <path d="M1 33C 1 22.348454 1 11.696908 1 1.022681C 67.55704 1.022681 134.11407 1.022681 201 1.022681C 201 26.35328 201 51.70798 200.53134 77.532196C 172.3583 78.049576 144.65392 78.097435 116.7095 78.05316C 116.3038 77.917076 116.13814 77.873116 115.82841 77.514404C 109.03509 63.90753 102.30266 50.655895 95.79789 37.293438C 94.2646 34.143673 92.56909 32.8553 88.80394 32.882553C 59.537212 33.094395 30.268263 32.99982 1 33z" stroke="none" fill="#000000" fill-rule="nonzero" />
    <path d="M1 33.375C 30.268263 32.99982 59.537212 33.094395 88.80394 32.882553C 92.56909 32.8553 94.2646 34.143673 95.79789 37.293438C 102.30266 50.655895 109.03509 63.90753 115.61563 77.799774C 114.644585 80.35035 113.79287 82.3261 112.83215 84.247345C 102.53917 104.83132 92.22896 125.406685 81.57228 146.05309C 80.54794 147.52078 79.874794 148.9198 79.17461 150.62012C 78.80321 151.6256 78.45884 152.32974 77.86421 153.21439C 77.43142 153.96776 77.24887 154.54065 77.03403 155.33157C 77.00173 155.5496 76.869385 155.9701 76.52417 156.04518C 75.52726 157.51788 74.87556 158.91548 74.20328 160.63336C 73.55253 162.0223 72.92234 163.09094 71.91347 164.0726C 69.65369 163.3307 67.77258 162.6758 65.89148 162.02087C 54.932133 140.29558 43.96103 118.5762 33.01697 96.84321C 23.378454 77.7028 13.779764 58.542328 4.128993 39.40811C 3.411539 37.985645 2.416108 36.70338 1.274952 35.67797C 1 35.25 1 34.5 1 33.375z" stroke="none" fill="#FE6E01" fill-rule="nonzero" />
    <path d="M116.94954 78.145294C 144.65392 78.097435 172.3583 78.049576 200.53134 78.000854C 201 83.022095 201 88.04418 201 93.533134C 200.1267 94.7219 198.89731 95.26506 198.43207 96.19181C 186.13507 120.687096 173.91698 145.22198 161.2928 169.43011C 152.62166 152.73067 144.34312 136.35123 136.00076 119.61667C 132.64899 112.79814 129.36104 106.33474 125.951935 99.576645C 125.25467 98.17265 124.67859 97.06335 124.050995 95.66852C 123.68422 94.91388 123.36897 94.44478 122.999405 93.61818C 120.94657 88.22222 118.94806 83.183754 116.94954 78.145294z" stroke="none" fill="#FCCDAB" fill-rule="nonzero" />
    <path d="M116.7095 78.05316C 118.94806 83.183754 120.94657 88.22222 122.798904 93.807175C 123.13599 94.88712 123.61925 95.420586 124.10251 95.95404C 124.67859 97.06335 125.25467 98.17265 125.928665 99.991264C 125.3543 102.659996 124.41085 104.57906 124.11098 106.59392C 123.929756 107.811615 124.71025 110.294044 125.12144 110.30763C 130.12857 110.47308 131.64671 113.90892 133.063 117.814415C 133.40976 118.77062 135.0299 119.26505 136.06459 119.97179C 144.34312 136.35123 152.62166 152.73067 160.93353 169.45761C 130.75162 169.83197 100.53634 169.85883 70.165405 169.53464C 70.77054 167.50894 71.53134 165.83426 72.292145 164.15958C 72.92234 163.09094 73.55253 162.0223 74.458084 160.42055C 75.44544 158.58165 76.15741 157.27586 76.869385 155.9701C 76.869385 155.9701 77.00173 155.5496 77.257904 155.12926C 77.7142 154.15057 77.91434 153.59224 78.11447 153.0339C 78.45884 152.32974 78.80321 151.6256 79.46985 150.46536C 80.50258 148.66768 81.21302 147.32603 81.92346 145.9844C 92.22896 125.406685 102.53917 104.83132 112.83215 84.247345C 113.79287 82.3261 114.644585 80.35035 115.75969 78.11453C 116.13814 77.873116 116.3038 77.917076 116.7095 78.05316z" stroke="none" fill="#FEA461" fill-rule="nonzero" />
    <path d="M71.91347 164.0726C 71.53134 165.83426 70.77054 167.50894 69.68565 169.35301C 68.238464 167.2615 67.11535 165.00063 65.94185 162.38031C 67.77258 162.6758 69.65369 163.3307 71.91347 164.0726z" stroke="none" fill="#F47213" fill-rule="nonzero" />
    <path d="M81.57228 146.05309C 81.21302 147.32603 80.50258 148.66768 79.49689 150.16406C 79.874794 148.9198 80.54794 147.52078 81.57228 146.05309z" stroke="none" fill="#F97715" fill-rule="nonzero" />
    <path d="M76.52417 156.04518C 76.15741 157.27586 75.44544 158.58165 74.47866 160.10025C 74.87556 158.91548 75.52726 157.51788 76.52417 156.04518z" stroke="none" fill="#F97715" fill-rule="nonzero" />
    <path d="M77.86422 153.21439C 77.91434 153.59224 77.7142 154.15057 77.2902 154.91122C 77.24887 154.54065 77.43142 153.96776 77.86422 153.21439z" stroke="none" fill="#F97715" fill-rule="nonzero" />
    <path d="M136.00076 119.61667C 135.0299 119.26505 133.40976 118.77062 133.063 117.814415C 131.64671 113.90892 130.12857 110.47308 125.12144 110.30763C 124.71025 110.294044 123.929756 107.811615 124.11098 106.59392C 124.41085 104.57906 125.3543 102.659996 126.04984 100.28595C 129.36104 106.33474 132.64899 112.79814 136.00076 119.61667z" stroke="none" fill="#F9A86B" fill-rule="nonzero" />
    <path d="M124.05099 95.66852C 123.61925 95.420586 123.13599 94.88712 122.853226 94.16467C 123.36897 94.44478 123.68422 94.91388 124.05099 95.66852z" stroke="none" fill="#F9A86B" fill-rule="nonzero" />
</g>
</svg>